<svg xmlns="http://www.w3.org/2000/svg" width="20.125" height="19.749" viewBox="0 0 20.125 19.749">
  <path id="Icon_awesome-calendar-day" data-name="Icon awesome-calendar-day" d="M0,17.9a2.022,2.022,0,0,0,2.156,1.851H17.969A2.022,2.022,0,0,0,20.125,17.9V7.406H0Zm2.875-7.406a.676.676,0,0,1,.719-.617H5.943a.676.676,0,0,1,.719.617V12.88a.676.676,0,0,1-.719.617H3.594a.676.676,0,0,1-.719-.617ZM17.969,2.469H15.813V.617A.676.676,0,0,0,15.094,0H13.656a.676.676,0,0,0-.719.617V2.469H7.188V.617A.676.676,0,0,0,6.469,0H5.031a.676.676,0,0,0-.719.617V2.469H2.156A2.022,2.022,0,0,0,0,4.32V6.172H20.125V4.32A2.022,2.022,0,0,0,17.969,2.469Z" fill="#ac2f69"/>
</svg>
